<svg width="42" height="61" viewBox="0 0 42 61" fill="none" xmlns="http://www.w3.org/2000/svg">
<path d="M5.19733 0.0845052C4.05691 0.225512 3.20157 0.495774 2.54989 0.907043C1.32801 1.67083 0.689909 3.83293 1.0429 5.94802C1.5045 8.67414 1.61311 10.096 1.69457 14.3497C1.77603 19.3436 1.64027 21.87 0.852828 31.0943C0.201154 38.6263 0.119695 39.9893 0.0246594 43.491C-0.138259 49.2137 0.513415 53.7611 1.76245 55.7939C2.33267 56.7222 3.78537 58.0616 4.95295 58.7313C9.77261 61.5163 14.4837 61.1168 18.7331 57.5564C20.5116 56.0642 21.6249 54.4896 22.1273 52.7387C22.3988 51.8575 22.4395 51.411 22.4259 49.3662C22.4259 46.7224 22.2359 45.324 21.2176 40.612C20.308 36.4289 20.1722 35.6064 20.1451 34.3257C20.1315 33.3387 20.1722 33.0918 20.403 32.7394C20.5659 32.5159 20.8375 32.3046 21.014 32.2576C21.2041 32.2105 22.1816 32.1752 23.1862 32.1635C29.4993 32.1281 33.8032 30.8591 36.9527 28.1213C39.3423 26.0532 40.9307 23.3976 41.7452 20.1544C42.0849 18.7679 42.0849 15.0312 41.7452 13.5271C41.4195 12.1053 40.7813 10.3192 40.2111 9.24994C37.9439 4.98447 32.5948 1.48282 26.5125 0.272514C25.3449 0.0375032 24.8562 0.0257525 15.6513 0.00225143C10.3564 -0.00949913 5.64534 0.0257525 5.19733 0.0845052Z" fill="#162A51"/>
<path d="M23.1712 23.753C23.3054 26.2574 22.1382 30.1126 17.4404 29.4944C15.0383 28.736 15.0743 27.1162 14.5086 26.1535C13.4772 24.4236 11.0293 25.1467 9.24319 24.5758C7.69571 24.0812 6.83217 22.0659 7.20089 20.6742C7.75244 18.5926 10.4833 17.0496 12.8887 16.5734C21.737 14.8214 22.4339 16.3358 23.1712 23.753Z" fill="#F5F5F5"/>
<path d="M12.5172 15.407C14.3949 15.6011 16.214 13.6063 16.5803 10.9515C16.9465 8.29678 15.7213 5.98737 13.8436 5.79332C11.9659 5.59923 10.1468 7.59402 9.78055 10.2488C9.41429 12.9035 10.6395 15.2129 12.5172 15.407Z" fill="#F5F5F5"/>
<path d="M19.4101 13.4448C21.2082 13.9514 23.4422 12.3015 24.3999 9.75967C25.3576 7.21783 24.6763 4.74652 22.8782 4.23988C21.0801 3.73321 18.846 5.38309 17.8883 7.92494C16.9306 10.4668 17.6119 12.9381 19.4101 13.4448Z" fill="#F5F5F5"/>
<path d="M24.7437 15.9268C26.1418 17.0289 28.9613 16.3201 31.0415 14.3435C33.1217 12.3669 33.6746 9.87115 32.2766 8.76902C30.8786 7.66689 28.059 8.37576 25.9788 10.3524C23.8987 12.3289 23.3457 14.8247 24.7437 15.9268Z" fill="#F5F5F5"/>
<path d="M24.9325 23.1432C26.14 24.4127 29.0107 24.0112 31.3444 22.2464C33.6779 20.4816 34.5909 18.0219 33.3835 16.7524C32.1761 15.4829 29.3054 15.8844 26.9717 17.6492C24.638 19.414 23.725 21.8738 24.9325 23.1432Z" fill="#F5F5F5"/>
</svg>
