<svg xmlns="http://www.w3.org/2000/svg" version="1.1" xmlns:xlink="http://www.w3.org/1999/xlink" xmlns:svgjs="http://svgjs.dev/svgjs" width="2000" height="2000" viewBox="0 0 2000 2000"><g transform="matrix(1,0,0,1,-1.499222379055709,-1.499222379055709)"><svg viewBox="0 0 306 306" data-background-color="#ffffff" preserveAspectRatio="xMidYMid meet" height="2000" width="2000" xmlns="http://www.w3.org/2000/svg" xmlns:xlink="http://www.w3.org/1999/xlink"><g id="tight-bounds" transform="matrix(1,0,0,1,0.22938102399552918,0.22938102399552918)"><svg viewBox="0 0 305.54123795200894 305.54123795200894" height="305.54123795200894" width="305.54123795200894"><g><svg></svg></g><g><svg viewBox="0 0 305.54123795200894 305.54123795200894" height="305.54123795200894" width="305.54123795200894"><g><path d="M0 152.771c0-84.373 68.398-152.771 152.771-152.771 84.373 0 152.771 68.398 152.77 152.771 0 84.373-68.398 152.771-152.77 152.77-84.373 0-152.771-68.398-152.771-152.77zM152.771 300.751c81.727 0 147.98-66.253 147.98-147.98 0-81.727-66.253-147.98-147.98-147.98-81.727 0-147.98 66.253-147.98 147.98 0 81.727 66.253 147.98 147.98 147.98z" data-fill-palette-color="tertiary" fill="#336a86" stroke="transparent"></path><ellipse rx="146.6597942169643" ry="146.6597942169643" cx="152.77061897600447" cy="152.77061897600447" fill="#336a86" stroke="transparent" stroke-width="0" fill-opacity="1" data-fill-palette-color="tertiary"></ellipse></g><g transform="matrix(1,0,0,1,59.38258870256698,109.53252806177167)"><svg viewBox="0 0 186.776060546875 86.4761818284656" height="86.4761818284656" width="186.776060546875"><g><svg viewBox="0 0 186.776060546875 86.4761818284656" height="86.4761818284656" width="186.776060546875"><g><svg viewBox="0 0 186.776060546875 86.4761818284656" height="86.4761818284656" width="186.776060546875"><g id="textblocktransform"><svg viewBox="0 0 186.776060546875 86.4761818284656" height="86.4761818284656" width="186.776060546875" id="textblock"><g><svg viewBox="0 0 186.776060546875 53.122226562499996" height="53.122226562499996" width="186.776060546875"><g><svg><g></g><g></g></svg></g><g><svg><g></g><g><svg></svg></g></svg></g><g id="text-0"><svg viewBox="0 0 186.776060546875 53.122226562499996" height="53.122226562499996" width="186.776060546875"><g><svg xmlns="http://www.w3.org/2000/svg" xmlns:xlink="http://www.w3.org/1999/xlink" version="1.1" x="0" y="0" viewBox="2 2 60 60" style="enable-background:new 0 0 64 64;" xml:space="preserve" height="53.122226562499996" width="53.122226562499996" class="icon-dxe-0" data-fill-palette-color="accent" id="dxe-0"><path d="M29 17C29 12.589 25.411 9 21 9S13 12.589 13 17 16.589 25 21 25 29 21.411 29 17M22.107 22.893A6.01 6.01 0 0 1 26.894 18.106 6.01 6.01 0 0 1 22.107 22.893M21 20.136A8.05 8.05 0 0 0 17.864 17 8.05 8.05 0 0 0 21 13.864 8.05 8.05 0 0 0 24.136 17 8.05 8.05 0 0 0 21 20.136M26.893 15.893A6.01 6.01 0 0 1 22.106 11.106 6.01 6.01 0 0 1 26.893 15.893M19.893 11.107A6.01 6.01 0 0 1 15.106 15.894 6.01 6.01 0 0 1 19.893 11.107M15.107 18.107A6.01 6.01 0 0 1 19.894 22.894 6.01 6.01 0 0 1 15.107 18.107" fill="#283138" data-fill-palette-color="accent"></path><path d="M43 9C38.589 9 35 12.589 35 17S38.589 25 43 25 51 21.411 51 17 47.411 9 43 9M48.893 15.893A6.01 6.01 0 0 1 44.106 11.106 6.01 6.01 0 0 1 48.893 15.893M46.136 17A8.05 8.05 0 0 0 43 20.136 8.05 8.05 0 0 0 39.864 17 8.05 8.05 0 0 0 43 13.864 8.05 8.05 0 0 0 46.136 17M41.893 11.107A6.01 6.01 0 0 1 37.106 15.894 6.01 6.01 0 0 1 41.893 11.107M37.107 18.107A6.01 6.01 0 0 1 41.894 22.894 6.01 6.01 0 0 1 37.107 18.107M44.107 22.893A6.01 6.01 0 0 1 48.894 18.106 6.01 6.01 0 0 1 44.107 22.893" fill="#283138" data-fill-palette-color="accent"></path><path d="M58 12.101V11C58 6.037 53.963 2 49 2H15C10.037 2 6 6.037 6 11V12.101A5.01 5.01 0 0 0 2 17V31A5.01 5.01 0 0 0 6 35.899V37C6 41.963 10.037 46 15 46H38.7A11.9 11.9 0 0 0 38 50C38 56.617 43.383 62 50 62S62 56.617 62 50C62 46.124 60.145 42.682 57.286 40.487 57.748 39.387 58 38.2 58 37V35.899A5.01 5.01 0 0 0 62 31V17A5.01 5.01 0 0 0 58 12.101M4 31V17C4 15.696 4.836 14.584 6 14.171V33.829A3.01 3.01 0 0 1 4 31M60 50C60 55.514 55.514 60 50 60S40 55.514 40 50C40 48.357 40.406 46.81 41.111 45.441 41.319 45.037 41.552 44.652 41.806 44.285 41.831 44.249 41.859 44.215 41.885 44.18 42.098 43.882 42.328 43.602 42.569 43.332 42.643 43.249 42.717 43.165 42.794 43.085 43.061 42.805 43.341 42.538 43.636 42.293 43.715 42.228 43.801 42.171 43.882 42.107A10 10 0 0 1 45.001 41.352C45.24 41.214 45.485 41.086 45.735 40.968 45.845 40.916 45.952 40.858 46.064 40.809A10 10 0 0 1 47.153 40.418C47.266 40.384 47.381 40.359 47.495 40.33 47.79 40.254 48.088 40.19 48.391 40.141A10 10 0 0 1 50 40 10 10 0 0 1 51.63 40.145C52.007 40.207 52.381 40.288 52.747 40.393 52.797 40.407 52.848 40.417 52.898 40.432 53.311 40.557 53.713 40.714 54.107 40.893 54.192 40.931 54.275 40.974 54.358 41.014A10 10 0 0 1 55.395 41.594C58.16 43.374 60 46.474 60 50M54.415 38.852A11 11 0 0 0 54.016 38.706 12 12 0 0 0 53.129 38.428C52.985 38.389 52.841 38.35 52.695 38.316 52.385 38.245 52.07 38.189 51.751 38.142 51.619 38.123 51.489 38.097 51.357 38.082 50.911 38.032 50.46 38 50 38 49.512 38 49.033 38.038 48.559 38.095 48.41 38.113 48.264 38.139 48.116 38.163 47.787 38.215 47.464 38.279 47.144 38.358 46.983 38.397 46.822 38.436 46.664 38.482 46.328 38.579 46 38.694 45.677 38.819 45.539 38.872 45.4 38.92 45.265 38.978A12 12 0 0 0 44.175 39.518C44 39.615 43.832 39.724 43.662 39.83 43.44 39.969 43.222 40.114 43.01 40.267 42.845 40.386 42.681 40.504 42.522 40.632 42.256 40.845 42.001 41.071 41.754 41.306 41.655 41.4 41.553 41.49 41.457 41.588 41.152 41.898 40.868 42.227 40.598 42.568 40.525 42.661 40.456 42.757 40.385 42.852 40.135 43.188 39.902 43.536 39.687 43.897 39.665 43.934 39.638 43.965 39.617 44.002H15C11.141 44.002 8 40.861 8 37.002V11C8 7.141 11.141 4 15 4H49C52.859 4 56 7.141 56 11V37C56 37.813 55.857 38.621 55.583 39.381 55.521 39.348 55.455 39.326 55.393 39.295A12 12 0 0 0 54.415 38.852M60 31A3.01 3.01 0 0 1 58 33.829V14.171C59.164 14.584 60 15.696 60 17z" fill="#283138" data-fill-palette-color="accent"></path><path d="M42 30H22A1 1 0 0 0 21 31V37A1 1 0 0 0 22 38H42A1 1 0 0 0 43 37V31A1 1 0 0 0 42 30M41 36H23V32H41z" fill="#283138" data-fill-palette-color="accent"></path><path d="M47 53.586L43.707 50.293 42.293 51.707 46.293 55.707A0.997 0.997 0 0 0 47.707 55.707L56.707 46.707 55.293 45.293z" fill="#283138" data-fill-palette-color="accent"></path></svg></g><g transform="matrix(1,0,0,1,68.4171484375,0)"><svg width="118.358912109375" viewBox="2.88 -27.73 89.2 40.03" height="53.122226562499996" data-palette-color="#ffffff"><path d="M12.55 0.2L2.88-27.54 9.57-27.54 15.38-7.96 15.38 0.2 12.55 0.2ZM17.38-7.96L23.24-27.54 29.88-27.54 20.21 0.2 17.38 0.2 17.38-7.96ZM41.01-8.3L41.01-8.3Q41.01-6.1 41.92-5.03 42.82-3.96 44.53-3.76L44.53-3.76 44.53 0.2Q44.33 0.24 43.89 0.24L43.89 0.24Q42.23 0.24 40.7-0.2 39.16-0.63 37.99-1.61 36.81-2.59 36.15-4.2 35.5-5.81 35.5-8.15L35.5-8.15Q35.5-10.4 36.45-12.04 37.4-13.67 38.89-14.72 40.38-15.77 42.28-16.28 44.19-16.8 46.14-16.8L46.14-16.8 48.29-16.8 48.29-13.33 47.21-13.33Q46.24-13.33 45.16-13.13 44.09-12.94 43.16-12.4 42.23-11.87 41.62-10.86 41.01-9.86 41.01-8.3ZM56.2-8.54L56.2-8.15Q56.2-7.76 56.25-7.01 56.3-6.25 56.44-5.47 56.59-4.69 56.91-4.05 57.22-3.42 57.76-3.22L57.76-3.22 56.2 0.05Q55.56 0.05 54.86-0.24 54.15-0.54 53.49-1.07 52.83-1.61 52.37-2.27 51.9-2.93 51.66-3.71L51.66-3.71Q51.17-2.49 49.73-1.54 48.29-0.59 46.53-0.15L46.53-0.15 46.53-3.86Q47.7-4.1 48.65-4.81 49.61-5.52 50.29-6.49L50.29-6.49 50.29-16.8Q50.29-19.19 50.05-20.61 49.8-22.02 49.22-22.68 48.63-23.34 47.78-23.51 46.92-23.68 45.75-23.68L45.75-23.68Q44.68-23.68 43.72-23.41 42.77-23.14 41.97-22.78 41.16-22.41 40.55-21.97 39.94-21.53 39.65-21.29L39.65-21.29 37.45-24.66Q37.94-25.2 38.91-25.76 39.89-26.32 41.16-26.76 42.43-27.2 43.92-27.47 45.41-27.73 47.02-27.73L47.02-27.73Q48.48-27.73 49.88-27.44 51.27-27.15 52.41-26.46 53.56-25.78 54.42-24.63 55.27-23.49 55.61-21.78L55.61-21.78Q55.95-20.07 56.08-18.33 56.2-16.6 56.2-14.89L56.2-14.89 56.2-8.54ZM86.13-27.54L92.08-27.54Q89.4-20.36 87.3-14.82 85.2-9.28 83.64-5.1 82.08-0.93 80.88 1.95 79.68 4.83 78.68 6.76 77.68 8.69 76.8 9.79 75.92 10.89 75 11.47 74.07 12.06 72.97 12.18 71.87 12.3 70.45 12.3L70.45 12.3Q70.01 12.3 69.43 12.18 68.84 12.06 68.28 11.89 67.72 11.72 67.28 11.55 66.84 11.38 66.69 11.33L66.69 11.33Q66.89 10.45 67.08 9.67L67.08 9.67Q67.23 8.98 67.4 8.37 67.57 7.76 67.67 7.52L67.67 7.52Q68.06 7.52 68.87 7.76 69.67 8.01 70.06 8.01L70.06 8.01Q70.84 8.01 71.45 7.93 72.07 7.86 72.55 7.5 73.04 7.13 73.48 6.42 73.92 5.71 74.46 4.39L74.46 4.39 76.31 0 86.13-27.54ZM77.29-7.37L75.29-2.59 65.03-27.54 70.94-27.54 77.97-9.03 77.29-7.37Z" opacity="1" transform="matrix(1,0,0,1,0,0)" fill="#ffffff" class="wordmark-text-0" data-fill-palette-color="quaternary"></path></svg></g></svg></g></svg></g><g transform="matrix(1,0,0,1,30.81804999023437,65.66310932046875)"><svg viewBox="0 0 125.13996056640624 20.813072507996857" height="20.813072507996857" width="125.13996056640624"><g transform="matrix(1,0,0,1,0,0)"><svg width="125.13996056640624" viewBox="2.95 -40.2 287.06 47.75" height="20.813072507996857" data-palette-color="#ffffff"><path d="M2.95-6.85L2.95-26.75Q2.95-33.85 11.95-33.85L11.95-33.85Q14.85-33.85 17.75-33.05L17.75-33.05 17.75-29.75Q14.8-30.6 11.85-30.6 8.9-30.6 7.7-29.58 6.5-28.55 6.5-26.55L6.5-26.55 6.5-7Q6.5-5.05 7.73-4.03 8.95-3 12.03-3 15.1-3 17.85-3.8L17.85-3.8 17.85-0.55Q15.35 0.25 11.95 0.25L11.95 0.25Q2.95 0.25 2.95-6.85L2.95-6.85ZM35.35-7.3L35.35-21.15Q35.35-25.8 30.75-25.8 26.15-25.8 26.15-21.15L26.15-21.15 26.15-7.3Q26.15-2.6 30.75-2.6 35.35-2.6 35.35-7.3L35.35-7.3ZM22.65-7.25L22.65-21.2Q22.65-24.75 24.65-26.85 26.65-28.95 30.75-28.95 34.85-28.95 36.85-26.85 38.85-24.75 38.85-21.2L38.85-21.2 38.85-7.25Q38.85-3.7 36.85-1.6 34.85 0.5 30.75 0.5 26.65 0.5 24.65-1.6 22.65-3.7 22.65-7.25L22.65-7.25ZM63.09-30.6L63.09-27.15 61.4-27.15Q60.09-27.15 59.15-26.5L59.15-26.5Q60.7-24.65 60.7-21.65L60.7-21.65 60.7-17.65Q60.7-14.25 58.65-12.33 56.59-10.4 52.45-10.35L52.45-10.35Q49.59-10.35 49.59-7.7L49.59-7.7Q49.59-6.5 50.34-5.95 51.09-5.4 52.84-5.4L52.84-5.4 55.8-5.4Q62.65-5.4 62.65 0.4L62.65 0.4 62.65 1.05Q62.65 7.45 53.59 7.45L53.59 7.45 51.55 7.45Q46.5 7.45 43.75 5.9L43.75 5.9 43.75 2.5Q47.05 4.35 51.55 4.35L51.55 4.35 53.34 4.35Q59.25 4.35 59.25 1.05L59.25 1.05 59.25 0.55Q59.25-0.9 58.52-1.63 57.8-2.35 55.59-2.35L55.59-2.35 52.59-2.35Q49.59-2.35 48-3.45 46.4-4.55 46.4-6.65L46.4-6.65 46.4-7.45Q46.4-8.75 47.12-9.6 47.84-10.45 48.95-10.75L48.95-10.75Q44-12.15 44-17.65L44-17.65 44-21.65Q44-25.05 46.07-27 48.15-28.95 52-28.95 55.84-28.95 57.8-27.6L57.8-27.6Q58.8-30.6 62.34-30.6L62.34-30.6 63.09-30.6ZM57.15-17.65L57.15-17.65 57.15-21.65Q57.15-23.8 56.02-24.85 54.9-25.9 52.34-25.9 49.8-25.9 48.67-24.85 47.55-23.8 47.55-21.65L47.55-21.65 47.55-17.65Q47.55-15.5 48.67-14.45 49.8-13.4 52.34-13.4 54.9-13.4 56.02-14.45 57.15-15.5 57.15-17.65ZM70.99-28.45L70.99-27.15Q74.34-28.55 77.12-28.55 79.89-28.55 81.69-26.83 83.49-25.1 83.49-21.95L83.49-21.95 83.49 0 79.94 0 79.94-21.6Q79.94-25.25 76.24-25.25L76.24-25.25Q73.89-25.25 71.14-23.95L71.14-23.95 71.14 0 67.59 0 67.59-28.45 70.99-28.45ZM91.92-31.65Q89.74-31.65 89.74-33.95 89.74-36.25 91.92-36.25 94.09-36.25 94.09-33.95 94.09-31.65 91.92-31.65ZM90.14 0L90.14-28.25 93.69-28.25 93.69 0 90.14 0ZM101.64-33.6L104.09-33.6 104.09-28.45 110.44-28.45 110.44-25.3 104.09-25.3 104.09-6.3Q104.09-4.55 104.94-3.78 105.79-3 107.54-3 109.29-3 110.94-3.55L110.94-3.55 110.94-0.3Q108.94 0.2 107.19 0.2L107.19 0.2Q100.49 0.2 100.49-6.15L100.49-6.15 100.49-25.3 97.39-25.3 97.39-28.45 100.64-28.45 101.64-33.6ZM116.91-31.65Q114.74-31.65 114.74-33.95 114.74-36.25 116.91-36.25 119.09-36.25 119.09-33.95 119.09-31.65 116.91-31.65ZM115.14 0L115.14-28.25 118.69-28.25 118.69 0 115.14 0ZM137.78-7.3L137.78-21.15Q137.78-25.8 133.18-25.8 128.58-25.8 128.58-21.15L128.58-21.15 128.58-7.3Q128.58-2.6 133.18-2.6 137.78-2.6 137.78-7.3L137.78-7.3ZM125.08-7.25L125.08-21.2Q125.08-24.75 127.08-26.85 129.08-28.95 133.18-28.95 137.28-28.95 139.28-26.85 141.28-24.75 141.28-21.2L141.28-21.2 141.28-7.25Q141.28-3.7 139.28-1.6 137.28 0.5 133.18 0.5 129.08 0.5 127.08-1.6 125.08-3.7 125.08-7.25L125.08-7.25ZM151.08-28.45L151.08-27.15Q154.43-28.55 157.21-28.55 159.98-28.55 161.78-26.83 163.58-25.1 163.58-21.95L163.58-21.95 163.58 0 160.03 0 160.03-21.6Q160.03-25.25 156.33-25.25L156.33-25.25Q153.98-25.25 151.23-23.95L151.23-23.95 151.23 0 147.68 0 147.68-28.45 151.08-28.45ZM180.03 7.55L180.03-40.2 182.78-40.2 182.78 7.55 180.03 7.55ZM212.57-7.5L212.57-33.6 216.12-33.6 216.12-7.4Q216.12-3.85 214-1.68 211.87 0.5 207.67 0.5 203.47 0.5 201.34-1.68 199.22-3.85 199.22-7.4L199.22-7.4 199.22-33.6 202.77-33.6 202.77-7.5Q202.77-2.7 207.67-2.7 212.57-2.7 212.57-7.5L212.57-7.5ZM235.17-7.7L235.17-21.6Q235.17-25.25 231.47-25.25L231.47-25.25Q229.07-25.25 226.32-23.95L226.32-23.95 226.32-3.25 230.52-3.25Q235.17-3.25 235.17-7.7L235.17-7.7ZM226.17-28.45L226.17-27.1Q229.52-28.55 232.32-28.55 235.12-28.55 236.94-26.83 238.77-25.1 238.77-21.95L238.77-21.95 238.77-7.45Q238.77-3.95 236.74-1.98 234.72 0 231.37 0L231.37 0 226.32 0 226.32 7.45 222.77 7.45 222.77-28.45 226.17-28.45ZM245.12 0L245.12-36 248.67-36 248.67 0 245.12 0ZM257.34-31.65Q255.16-31.65 255.16-33.95 255.16-36.25 257.34-36.25 259.51-36.25 259.51-33.95 259.51-31.65 257.34-31.65ZM255.56 0L255.56-28.25 259.11-28.25 259.11 0 255.56 0ZM267.06-28.45L267.06-30.15Q267.06-33.4 268.81-35.18 270.56-36.95 273.96-36.95L273.96-36.95Q275.16-36.95 276.21-36.8L276.21-36.8 276.21-33.75Q275.46-33.95 274.21-33.95L274.21-33.95Q270.61-33.95 270.61-30.2L270.61-30.2 270.61-28.45 275.91-28.45 275.91-25.4 270.61-25.4 270.61 0 267.06 0 267.06-25.4 264.21-25.4 264.21-28.45 267.06-28.45ZM280.71-33.6L283.16-33.6 283.16-28.45 289.51-28.45 289.51-25.3 283.16-25.3 283.16-6.3Q283.16-4.55 284.01-3.78 284.86-3 286.61-3 288.36-3 290.01-3.55L290.01-3.55 290.01-0.3Q288.01 0.2 286.26 0.2L286.26 0.2Q279.56 0.2 279.56-6.15L279.56-6.15 279.56-25.3 276.46-25.3 276.46-28.45 279.71-28.45 280.71-33.6Z" opacity="1" transform="matrix(1,0,0,1,0,0)" fill="#ffffff" class="slogan-text-1" data-fill-palette-color="quaternary" id="text-1"></path></svg></g></svg></g></svg></g></svg></g></svg></g></svg></g></svg></g><defs></defs></svg><rect width="305.54123795200894" height="305.54123795200894" fill="none" stroke="none" visibility="hidden"></rect></g></svg></g></svg>